#!OML:ASF C:\Vicon Data\Big\jianyuan-13\jianyuan\Session 1\Capture.male.ASF
:FULLY-SPECIFIED
:DEGREES
139
root -7.934804 17.458997 -16.588736 10.026057 6.354624 0.808523
lowerback -10.063072 0.459974 -2.153799 
upperback -0.738149 0.776496 0.001482 
thorax 4.845692 0.304472 1.320826 
lowerneck -9.031786 -2.685620 4.731465 
upperneck 9.927524 -3.837827 -4.376211 
head 4.266232 -2.001086 -2.352754 
rclavicle 0.000000 0.000000 
rhumerus -35.278224 -13.528752 -83.582480 
rradius 35.607727 
rwrist 21.904439 
rhand -20.752061 -15.847864 
rfingers 0.000000 
rthumb 5.613768 -45.753463 
lclavicle 0.000000 0.000000 
lhumerus -61.894334 45.546949 45.404626 
lradius 20.547398 
lwrist -79.407481 
lhand -22.296908 -1.073141 
lfingers 0.000000 
lthumb 4.122059 28.866703 
rfemur -12.077332 -1.160925 23.792488 
rtibia 36.921845 
rfoot -9.007735 2.017927 
rtoes -27.522038 
lfemur -23.546932 -5.615594 -20.767350 
ltibia 13.288232 
lfoot -4.677090 3.128267 
ltoes -20.911056 
140
root -7.925277 17.458139 -16.521942 9.921105 6.326517 0.860382
lowerback -9.927660 0.429824 -2.147370 
upperback -0.713361 0.736970 -0.034486 
thorax 4.797975 0.286923 1.272888 
lowerneck -9.068666 -2.674331 4.774604 
upperneck 10.014167 -3.827969 -4.401853 
head 4.297947 -1.996800 -2.369425 
rclavicle 0.000000 0.000000 
rhumerus -35.469159 -13.604160 -83.564589 
rradius 35.419418 
rwrist 21.624673 
rhand -20.890961 -16.060425 
rfingers 0.000000 
rthumb 5.479600 -45.969582 
lclavicle 0.000000 0.000000 
lhumerus -61.320790 45.545308 46.048848 
lradius 20.618746 
lwrist -79.373615 
lhand -22.441815 -1.035924 
lfingers 0.000000 
lthumb 3.982149 28.906607 
rfemur -12.726624 -1.496990 23.594128 
rtibia 38.540024 
rfoot -8.260210 2.446197 
rtoes -27.805087 
lfemur -23.391925 -5.593894 -20.855766 
ltibia 13.655469 
lfoot -4.506215 2.784886 
ltoes -19.373246 
141
root -7.912600 17.452780 -16.458468 9.917674 6.297850 0.919894
lowerback -9.866057 0.417272 -2.112042 
upperback -0.716305 0.717732 -0.091003 
thorax 4.762319 0.279207 1.190742 
lowerneck -9.138691 -2.663846 4.824911 
upperneck 10.139183 -3.824037 -4.403829 
head 4.347047 -1.993910 -2.381662 
rclavicle 0.000000 0.000000 
rhumerus -35.692219 -13.752763 -83.508357 
rradius 35.250586 
rwrist 21.537970 
rhand -20.956755 -16.173074 
rfingers 0.000000 
rthumb 5.416068 -46.083867 
lclavicle 0.000000 0.000000 
lhumerus -60.307240 45.286963 47.225594 
lradius 20.670007 
lwrist -78.506502 
lhand -22.500949 -1.135053 
lfingers 0.000000 
lthumb 3.925046 28.808564 
rfemur -13.539588 -1.796585 23.390348 
rtibia 40.195215 
rfoot -7.440556 2.725099 
rtoes -28.166027 
lfemur -23.336512 -5.526003 -21.018493 
ltibia 14.005044 
lfoot -4.302970 2.462290 
ltoes -18.945150 
142
root -7.902848 17.450737 -16.392430 9.859398 6.181125 0.948478
lowerback -9.774591 0.426207 -2.113508 
upperback -0.701983 0.730541 -0.120220 
thorax 4.726057 0.286710 1.161998 
lowerneck -9.195702 -2.649299 4.823644 
upperneck 10.273831 -3.817706 -4.313242 
head 4.400149 -1.986101 -2.356845 
rclavicle 0.000000 0.000000 
rhumerus -35.935481 -13.827401 -83.438234 
rradius 35.059926 
rwrist 21.579105 
rhand -20.970299 -16.255521 
rfingers 0.000000 
rthumb 5.403045 -46.166634 
lclavicle 0.000000 0.000000 
lhumerus -59.290636 44.949558 48.488699 
lradius 20.797834 
lwrist -77.755316 
lhand -22.535961 -1.107440 
lfingers 0.000000 
lthumb 3.891229 28.836780 
rfemur -14.326152 -1.879025 23.209493 
rtibia 41.867976 
rfoot -6.643140 2.904268 
rtoes -28.285398 
lfemur -23.219264 -5.449437 -21.134263 
ltibia 14.364438 
lfoot -4.217157 2.244213 
ltoes -18.389070 
